<?xml version="1.0" encoding="utf-8"?>
<!-- Generator: Adobe Illustrator 24.1.2, SVG Export Plug-In . SVG Version: 6.00 Build 0)  -->
<svg version="1.1" id="Layer_1" xmlns="http://www.w3.org/2000/svg" xmlns:xlink="http://www.w3.org/1999/xlink" x="0px" y="0px"
	 viewBox="0 0 582.5 160.3" style="enable-background:new 0 0 582.5 160.3;" xml:space="preserve">
<style type="text/css">
	.st0{fill:#2D2D2D;}
	.st1{fill-rule:evenodd;clip-rule:evenodd;fill:url(#SVGID_1_);}
</style>
<g>
	<g>
		<g>
			<path class="st0" d="M212.6,66.5c-0.4-5.8-5.7-10.4-14.5-10.4c-9.2,0-14.6,4.3-14.6,11c0,15.2,38.7,1.1,38.7,25.1
				c0,10.7-9.4,18.6-24.1,18.6c-14.5,0-23.7-7.7-24.1-18.1h8.1c0.4,6.3,6.1,10.8,15.8,10.8c10.4,0,16.1-4.6,16.1-11.3
				c0-15.2-38.6-1-38.6-25.1c0-10.6,8.7-18.2,22.5-18.2c13.8,0,22.3,7.6,22.5,17.6H212.6z"/>
			<path class="st0" d="M231.8,134.4V80.2c0-18.7,13-31.3,31.6-31.3c18.6,0,31.7,13.1,31.7,31c0,19.2-14.1,31-30.5,31
				c-11.3,0-20.2-5.2-24.5-13.7h-0.2v37.3H231.8z M286.9,79.9c0-13.6-9.5-23.6-23.6-23.6c-14.2,0-23.6,10-23.6,23.6
				s9.4,23.6,23.6,23.6C277.4,103.4,286.9,93.4,286.9,79.9z"/>
			<path class="st0" d="M345.9,74.9V74c0-12.3-6.8-17.7-16.8-17.7c-10.1,0-16.8,5.5-16.8,17.7v35.2h-8V74
				c0-16.9,10.1-25.1,24.8-25.1c14.6,0,24.7,8.2,24.7,25.2v0.7H345.9z"/>
			<path class="st0" d="M367.4,82.5c1.1,12.3,10.2,21,23.5,21c9.3,0,16.4-3.8,20.2-10.6h8.7c-4.5,10.8-15.2,18-28.9,18
				c-18.6,0-31.7-13.1-31.7-31s13.1-31,31.7-31c18.6,0,31.4,13.1,31.4,31v2.6H367.4z M367.6,75.1v0.2H414v-0.2
				c-1.9-11.2-10.7-18.8-23.1-18.8C378.4,56.3,369.5,63.9,367.6,75.1z"/>
			<path class="st0" d="M492.4,109.3h-7.4V95.4h-0.2c-3.9,9.4-13.2,15.5-25.1,15.5c-16.6,0-30.5-11.8-30.5-31
				c0-17.9,13.1-31,31.7-31c18.6,0,31.6,12.7,31.6,31.3V109.3z M484.5,79.9c0-13.6-9.5-23.6-23.6-23.6s-23.6,10-23.6,23.6
				s9.5,23.6,23.6,23.6S484.5,93.4,484.5,79.9z"/>
			<path class="st0" d="M501.7,79.9c0-19.2,13.9-31,30.5-31c11.3,0,20.2,5.4,24.5,13.7h0.2V24.7h8v54.8c0,18.7-13,31.3-31.6,31.3
				C514.8,110.8,501.7,97.7,501.7,79.9z M557,79.9c0-13.6-9.5-23.6-23.6-23.6c-14.1,0-23.6,10-23.6,23.6s9.5,23.6,23.6,23.6
				C547.4,103.4,557,93.4,557,79.9z"/>
		</g>
	</g>
	
		<linearGradient id="SVGID_1_" gradientUnits="userSpaceOnUse" x1="117.0554" y1="86.6664" x2="260.4841" y2="86.6664" gradientTransform="matrix(0.9997 2.598002e-02 -2.598002e-02 0.9997 -108.7989 -8.2674)">
		<stop  offset="1.609611e-03" style="stop-color:#FFA100"/>
		<stop  offset="0.2925" style="stop-color:#FF9D00"/>
		<stop  offset="0.601" style="stop-color:#FF9000"/>
		<stop  offset="0.9164" style="stop-color:#FF7B00"/>
		<stop  offset="1" style="stop-color:#FF7400"/>
	</linearGradient>
	<path class="st1" d="M65.4,12c-9.4,4-19.2,8.5-29.3,13.9c-7,3.7-8.2,13.3-2.3,18.6c4.2,3.8,8.7,7.9,13.4,12.4
		c5.4,5.1,4.5,13.9-1.7,17.9C33.7,82.5,21.7,90.8,9.8,99.8C4.7,103.7,3.7,111,7.7,116c6.9,8.7,17.6,22.3,26.9,34
		c3.9,4.9,10.9,5.8,15.9,2c33.9-25.7,66.8-47.2,93.8-64c6.2-3.9,7.2-12.6,2-17.8c-25.3-25.3-50-44.3-70.1-57.3
		C72.8,10.8,68.9,10.5,65.4,12z"/>
</g>
</svg>
